<?xml version="1.0" encoding="utf-8"?>
<!-- Generator: Adobe Illustrator 26.0.3, SVG Export Plug-In . SVG Version: 6.00 Build 0)  -->
<svg version="1.1" id="Layer_1" xmlns="http://www.w3.org/2000/svg" xmlns:xlink="http://www.w3.org/1999/xlink" x="0px" y="0px"
	 viewBox="0 0 45 20" style="enable-background:new 0 0 45 20;" xml:space="preserve">
<style type="text/css">
	.st0{fill:#DDDDDD;}
	.st1{fill:#012B28;}
	.st2{fill:#FFFFFF;}
	.st3{fill:#049483;}
	.st4{fill:#00AB97;}
</style>
<g>
	<path class="st1" d="M42.7,20H2.3C1,20,0,19,0,17.7L0,2.3C0,1,1,0,2.3,0l40.5,0C44,0,45,1,45,2.3v15.5C45,19,44,20,42.7,20z"/>
</g>
<g>
	<path class="st2" d="M17,12.3l0.1,1.3h-1.5V6.4h1.4l0,3.5c0.2-1.2,1.4-1.5,2.6-1.5c1.4,0,2.6,1.1,2.6,2.7c0,1.6-1.2,2.7-2.8,2.7
		C18.3,13.7,17.3,13.4,17,12.3z M20.9,11c0-1-0.7-1.6-1.8-1.6c-0.9,0-1.8,0.6-1.8,1.6c0,1,0.8,1.6,1.8,1.6
		C20.2,12.6,20.9,12,20.9,11z"/>
	<path class="st2" d="M22.7,7c0-0.5,0.3-0.8,0.9-0.8c0.5,0,0.9,0.3,0.9,0.8c0,0.6-0.3,0.8-0.9,0.8C23.1,7.8,22.7,7.5,22.7,7z
		 M22.9,8.6h1.4v5h-1.4V8.6z"/>
	<path class="st2" d="M25,6.5h1.4v7.2H25V6.5z"/>
	<path class="st2" d="M27.1,6.5h1.4v7.2h-1.4V6.5z"/>
	<path class="st2" d="M29.1,11.1c0-1.6,1.2-2.7,3-2.7c1.8,0,3,0.9,3,2.3v0.8h-4.6c0.2,0.8,0.8,1.2,2.1,1.2c1.2,0,1.7-0.3,2.3-0.6
		v1.2c-1,0.4-1.5,0.5-2.8,0.5C30.3,13.8,29.1,12.7,29.1,11.1z M33.8,10.9c0-0.8-0.7-1.3-1.7-1.3c-0.9,0-1.5,0.5-1.6,1.3L33.8,10.9z"
		/>
	<path class="st2" d="M35.6,8.6h1.6l-0.1,0.8c0,0,1-1,2.9-1v1.2c-2.1,0-2.9,0.7-2.9,2.3v1.7h-1.4V8.6z"/>
	<g>
		<path class="st3" d="M9.1,5.1H7C5.9,5.1,5,6,5,7.1v4.2c0,0,0-1.7,2.1-1.7c0.7,0,2.4,0,2.4,0c1.1,0,1.9-0.9,1.9-2v0
			C11.4,6.2,10.4,5.1,9.1,5.1z"/>
		<path class="st4" d="M10.1,15.1H7.4c-1.3,0-2.4-1.1-2.4-2.5V7.5c0,0,0,2.1,2.6,2.1c0.8,0,3,0,3,0c1.3,0,2.4,1.1,2.4,2.5v0
			C12.9,13.7,11.7,15.1,10.1,15.1z"/>
	</g>
</g>
</svg>
