<svg id="Layer_1" data-name="Layer 1" xmlns="http://www.w3.org/2000/svg" viewBox="0 0 921.56 284.26"><defs><style>.cls-1{fill:#049483;}.cls-2{fill:#00ab97;}</style></defs><path d="M339.71,196.48l2.38,30.09H307.38V60.18h33.75l1,79.55c5.7-28,32.56-35.82,61.8-35.82,34,0,61.8,25,61.8,62.28,0,38.51-27.57,64.18-66.79,64.18C369.18,230.37,345.41,221.44,339.71,196.48Zm92.94-29.82c0-22.81-17.83-36.84-42.31-36.84-22.58,0-42.55,14-42.55,36.84,0,23.3,20,37.56,42.55,37.56C414.82,204.22,432.65,190,432.65,166.66Z"/><path d="M472.3,68c0-12.84,8.08-19,20.68-19,12.83,0,21.15,6.18,21.15,19,0,13.07-8.08,19.25-21.15,19.25C480.38,87.27,472.3,81.09,472.3,68Zm4.28,39.7h33.75V226.57H476.58Z"/><path d="M527.6,60.18h33.76V226.57H527.6Z"/><path d="M577.37,60.18h33.75V226.57H577.37Z"/><path d="M623.4,167.14c0-38,28.52-63.23,71.55-63.23,42.55,0,70.83,21.63,71.54,54v19.49H656.92c4,19.49,18.54,27.34,49.91,27.34,29,0,40.89-7.37,54.43-13.08v27.1c-23,8.8-36.36,11.65-66.31,11.65C651.92,230.37,623.4,205.17,623.4,167.14Zm111-8.08c-.72-17.83-16.64-29.24-39.46-29.24-21.16,0-36.61,12.12-38.51,31.14Z"/><path d="M780.23,107.72h37.09l-2.59,19.61s24.69-23.42,69.14-23.42V132.2C834,132.2,814,148.36,814,186.63v39.94H780.23Z"/><path class="cls-1" d="M146.3,26.09H94.4A48.53,48.53,0,0,0,45.87,74.62v97.6s0-39.94,51.93-39.94h58.57a48.06,48.06,0,0,0,48.06-48.06h0A58.12,58.12,0,0,0,146.3,26.09Z"/><path class="cls-2" d="M171.74,261.23H105a59.12,59.12,0,0,1-59.12-59.12V83.22s0,48.65,63.25,48.65H184a58.55,58.55,0,0,1,58.54,58.55h0A70.81,70.81,0,0,1,171.74,261.23Z"/></svg>